{
    "asset": {
        "generator": "COLLADA2GLTF",
        "version": "2.0"
    },
    "scenes": [
        {
            "nodes": [
                0
            ]
        }
    ],
    "scene": 0,
    "nodes": [
        {
            "children": [
                1
            ],
            "matrix": [
                1.0,
                0.0,
                0.0,
                0.0,
                0.0,
                0.0,
                -1.0,
                0.0,
                0.0,
                1.0,
                0.0,
                0.0,
                0.0,
                0.0,
                0.0,
                1.0
            ],
            "name": "Z_UP"
        },
        {
            "mesh": 0,
            "children": [
                3,
                2
            ],
            "name": "SketchUp"
        },
        {
            "matrix": [
                0.9939377307891846,
                0.10994510352611542,
                0.0,
                0.0,
                -0.030104828998446466,
                0.2721570134162903,
                0.9617817997932434,
                0.0,
                0.10574319958686829,
                -0.95595121383667,
                0.27381691336631777,
                0.0,
                0.7099195718765259,
                -1.9374492168426512,
                0.9371739029884338,
                1.0
            ],
            "camera": 0,
            "name": "skp_camera_Last_Saved_SketchUp_View"
        },
        {
            "mesh": 1
        }
    ],
    "cameras": [
        {
            "perspective": {
                "yfov": 0.6108646988868713,
                "zfar": 25.399999618530278,
                "znear": 0.02539999969303608
            },
            "type": "perspective",
            "name": "skp_camera_Last_Saved_SketchUp_View"
        }
    ],
    "meshes": [
        {
            "primitives": [
                {
                    "attributes": {
                        "NORMAL": 1,
                        "POSITION": 2,
                        "TEXCOORD_0": 3
                    },
                    "indices": 0,
                    "mode": 4,
                    "material": 0
                }
            ],
            "name": "ID3"
        },
        {
            "primitives": [
                {
                    "attributes": {
                        "NORMAL": 5,
                        "POSITION": 6,
                        "TEXCOORD_0": 7
                    },
                    "indices": 4,
                    "mode": 4,
                    "material": 0
                }
            ],
            "name": "ID16"
        }
    ],
    "accessors": [
        {
            "bufferView": 0,
            "byteOffset": 0,
            "componentType": 5123,
            "count": 384,
            "max": [
                229
            ],
            "min": [
                0
            ],
            "type": "SCALAR"
        },
        {
            "bufferView": 1,
            "byteOffset": 0,
            "componentType": 5126,
            "count": 230,
            "max": [
                0.6587972044944763,
                0.6574811339378357,
                1.0
            ],
            "min": [
                -0.6587972044944763,
                -0.6574811339378357,
                -1.0
            ],
            "type": "VEC3"
        },
        {
            "bufferView": 1,
            "byteOffset": 2760,
            "componentType": 5126,
            "count": 230,
            "max": [
                0.41085538268089297,
                0.8365113139152527,
                0.15299999713897706
            ],
            "min": [
                -0.3865844309329987,
                -0.7583685517311096,
                0.0
            ],
            "type": "VEC3"
        },
        {
            "bufferView": 2,
            "byteOffset": 0,
            "componentType": 5126,
            "count": 230,
            "max": [
                0.18037770688533784,
                1.6220216751098633
            ],
            "min": [
                -0.18699979782104493,
                0.3138850927352905
            ],
            "type": "VEC2"
        },
        {
            "bufferView": 0,
            "byteOffset": 768,
            "componentType": 5123,
            "count": 276,
            "max": [
                205
            ],
            "min": [
                0
            ],
            "type": "SCALAR"
        },
        {
            "bufferView": 1,
            "byteOffset": 5520,
            "componentType": 5126,
            "count": 206,
            "max": [
                0.6842749714851379,
                1.0,
                1.0
            ],
            "min": [
                -0.6842749714851379,
                -1.0,
                -0.7292240858078003
            ],
            "type": "VEC3"
        },
        {
            "bufferView": 1,
            "byteOffset": 7992,
            "componentType": 5126,
            "count": 206,
            "max": [
                0.35737594962120058,
                0.7980542182922363,
                0.15299999713897706
            ],
            "min": [
                -0.3331049680709839,
                -0.7199114561080933,
                0.020000001415610318
            ],
            "type": "VEC3"
        },
        {
            "bufferView": 2,
            "byteOffset": 1840,
            "componentType": 5126,
            "count": 206,
            "max": [
                0.18037770688533784,
                1.4543012380599976
            ],
            "min": [
                -0.18493500351905824,
                0.4102612137794495
            ],
            "type": "VEC2"
        }
    ],
    "materials": [
        {
            "pbrMetallicRoughness": {
                "baseColorTexture": {
                    "index": 0
                },
                "metallicFactor": 0.0
            },
            "name": "ID5"
        }
    ],
    "textures": [
        {
            "sampler": 0,
            "source": 0
        }
    ],
    "images": [
        {
            "uri": "Wood_Floor_Dark.jpg"
        }
    ],
    "samplers": [
        {
            "magFilter": 9729,
            "minFilter": 9986,
            "wrapS": 10497,
            "wrapT": 10497
        }
    ],
    "bufferViews": [
        {
            "buffer": 0,
            "byteOffset": 13952,
            "byteLength": 1320,
            "target": 34963
        },
        {
            "buffer": 0,
            "byteOffset": 0,
            "byteLength": 10464,
            "byteStride": 12,
            "target": 34962
        },
        {
            "buffer": 0,
            "byteOffset": 10464,
            "byteLength": 3488,
            "byteStride": 8,
            "target": 34962
        }
    ],
    "buffers": [
        {
            "byteLength": 15272,
            "uri": "1761a283-32c4-4b6f-b593-8650c2f0b17c0.bin"
        }
    ]
}
