{
  "accessors": [
    {
      "bufferView": 2,
      "componentType": 5126,
      "count": 5528,
      "max": [
        1.8885459899902344,
        0.49621310830116272,
        0.42373991012573242
      ],
      "min": [
        -2.7504940032958984,
        -0.56501072645187378,
        -0.42373129725456238
      ],
      "type": "VEC3"
    },
    {
      "bufferView": 2,
      "byteOffset": 66336,
      "componentType": 5126,
      "count": 5528,
      "max": [
        0.999900221824646,
        0.99982160329818726,
        0.99995648860931396
      ],
      "min": [
        -0.98842030763626099,
        -0.99999397993087769,
        -0.99997210502624512
      ],
      "type": "VEC3"
    },
    {
      "bufferView": 1,
      "componentType": 5126,
      "count": 5528,
      "max": [
        0.9616658091545105,
        0.66853970289230347
      ],
      "min": [
        0.03916323184967041,
        0.29733559489250183
      ],
      "type": "VEC2"
    },
    {
      "bufferView": 0,
      "componentType": 5125,
      "count": 32976,
      "max": [
        5527
      ],
      "min": [
        0
      ],
      "type": "SCALAR"
    },
    {
      "bufferView": 2,
      "byteOffset": 132672,
      "componentType": 5126,
      "count": 297,
      "max": [
        0.36568459868431091,
        0.15370570123195648,
        0.092826537787914276
      ],
      "min": [
        -0.31292471289634705,
        -0.15407410264015198,
        -0.092924110591411591
      ],
      "type": "VEC3"
    },
    {
      "bufferView": 2,
      "byteOffset": 136236,
      "componentType": 5126,
      "count": 297,
      "max": [
        0.0046998849138617516,
        0.99998897314071655,
        0.98768264055252075
      ],
      "min": [
        -0.99310177564620972,
        -0.98928189277648926,
        -0.98770880699157715
      ],
      "type": "VEC3"
    },
    {
      "bufferView": 1,
      "byteOffset": 44224,
      "componentType": 5126,
      "count": 297,
      "max": [
        0.89871382713317871,
        0.4757767915725708
      ],
      "min": [
        0.89812040328979492,
        0.47405239939689636
      ],
      "type": "VEC2"
    },
    {
      "bufferView": 0,
      "byteOffset": 131904,
      "componentType": 5125,
      "count": 1560,
      "max": [
        296
      ],
      "min": [
        0
      ],
      "type": "SCALAR"
    },
    {
      "bufferView": 2,
      "byteOffset": 139800,
      "componentType": 5126,
      "count": 964,
      "max": [
        0.70327287912368774,
        0.6956983208656311,
        2.2166869640350342
      ],
      "min": [
        -0.69492727518081665,
        -0.69590401649475098,
        -2.2066199779510498
      ],
      "type": "VEC3"
    },
    {
      "bufferView": 2,
      "byteOffset": 151368,
      "componentType": 5126,
      "count": 964,
      "max": [
        0.99888306856155396,
        0.99929559230804443,
        0.99993407726287842
      ],
      "min": [
        -0.99911051988601685,
        -0.99462622404098511,
        -0.9999350905418396
      ],
      "type": "VEC3"
    },
    {
      "bufferView": 1,
      "byteOffset": 46600,
      "componentType": 5126,
      "count": 964,
      "max": [
        0.86039179563522339,
        0.56586742401123047
      ],
      "min": [
        0.8321840763092041,
        0.51276969909667969
      ],
      "type": "VEC2"
    },
    {
      "bufferView": 0,
      "byteOffset": 138144,
      "componentType": 5125,
      "count": 5760,
      "max": [
        963
      ],
      "min": [
        0
      ],
      "type": "SCALAR"
    },
    {
      "bufferView": 2,
      "byteOffset": 162936,
      "componentType": 5126,
      "count": 4636,
      "max": [
        0.36967891454696655,
        0.87221992015838623,
        0.020102620124816895
      ],
      "min": [
        -0.73458290100097656,
        0.41271120309829712,
        -0.012954169884324074
      ],
      "type": "VEC3"
    },
    {
      "bufferView": 2,
      "byteOffset": 218568,
      "componentType": 5126,
      "count": 4636,
      "max": [
        0.99998337030410767,
        0.9999535083770752,
        1
      ],
      "min": [
        -1,
        -0.99999916553497314,
        -1
      ],
      "type": "VEC3"
    },
    {
      "bufferView": 1,
      "byteOffset": 54312,
      "componentType": 5126,
      "count": 4636,
      "max": [
        0.71718782186508179,
        0.79027551412582397
      ],
      "min": [
        0.49428170919418335,
        0.63373517990112305
      ],
      "type": "VEC2"
    },
    {
      "bufferView": 0,
      "byteOffset": 161184,
      "componentType": 5125,
      "count": 27690,
      "max": [
        4635
      ],
      "min": [
        0
      ],
      "type": "SCALAR"
    },
    {
      "bufferView": 2,
      "byteOffset": 274200,
      "componentType": 5126,
      "count": 1408,
      "max": [
        0.5105443000793457,
        -0.29181560873985291,
        0.30567479133605957
      ],
      "min": [
        0.076691381633281708,
        -0.77246099710464478,
        -0.31792938709259033
      ],
      "type": "VEC3"
    },
    {
      "bufferView": 2,
      "byteOffset": 291096,
      "componentType": 5126,
      "count": 1408,
      "max": [
        0.99519479274749756,
        0.97736287117004395,
        0.99990612268447876
      ],
      "min": [
        -0.99730944633483887,
        -0.97304439544677734,
        -0.99992930889129639
      ],
      "type": "VEC3"
    },
    {
      "bufferView": 1,
      "byteOffset": 91400,
      "componentType": 5126,
      "count": 1408,
      "max": [
        0.73798149824142456,
        0.36916449666023254
      ],
      "min": [
        0.6581428050994873,
        0.20312640070915222
      ],
      "type": "VEC2"
    },
    {
      "bufferView": 0,
      "byteOffset": 271944,
      "componentType": 5125,
      "count": 8304,
      "max": [
        1407
      ],
      "min": [
        0
      ],
      "type": "SCALAR"
    },
    {
      "bufferView": 2,
      "byteOffset": 307992,
      "componentType": 5126,
      "count": 1254,
      "max": [
        0.41119199991226196,
        0.15434910356998444,
        0.46639341115951538
      ],
      "min": [
        -0.67095321416854858,
        -0.13422389328479767,
        -0.45843610167503357
      ],
      "type": "VEC3"
    },
    {
      "bufferView": 2,
      "byteOffset": 323040,
      "componentType": 5126,
      "count": 1254,
      "max": [
        0.69787460565567017,
        0.92262780666351318,
        0.99995040893554688
      ],
      "min": [
        -0.98321771621704102,
        -0.99982750415802002,
        -0.99987798929214478
      ],
      "type": "VEC3"
    },
    {
      "bufferView": 1,
      "byteOffset": 102664,
      "componentType": 5126,
      "count": 1254,
      "max": [
        0.70159882307052612,
        0.52942162752151489
      ],
      "min": [
        0.50266337394714355,
        0.42950031161308289
      ],
      "type": "VEC2"
    },
    {
      "bufferView": 0,
      "byteOffset": 305160,
      "componentType": 5125,
      "count": 7500,
      "max": [
        1253
      ],
      "min": [
        0
      ],
      "type": "SCALAR"
    },
    {
      "bufferView": 2,
      "byteOffset": 338088,
      "componentType": 5126,
      "count": 2752,
      "max": [
        2.6284759044647217,
        0.25212138891220093,
        3.791018009185791
      ],
      "min": [
        -4.1798858642578125,
        -0.24512049555778503,
        -4.5571022033691406
      ],
      "type": "VEC3"
    },
    {
      "bufferView": 2,
      "byteOffset": 371112,
      "componentType": 5126,
      "count": 2752,
      "max": [
        0.99928367137908936,
        0.99999392032623291,
        0.9995192289352417
      ],
      "min": [
        -0.99980169534683228,
        -0.99999392032623291,
        -0.9998013973236084
      ],
      "type": "VEC3"
    },
    {
      "bufferView": 1,
      "byteOffset": 112696,
      "componentType": 5126,
      "count": 2752,
      "max": [
        0.51690828800201416,
        0.76367610692977905
      ],
      "min": [
        0.26782101392745972,
        0.19182939827442169
      ],
      "type": "VEC2"
    },
    {
      "bufferView": 0,
      "byteOffset": 335160,
      "componentType": 5125,
      "count": 16488,
      "max": [
        2751
      ],
      "min": [
        0
      ],
      "type": "SCALAR"
    },
    {
      "bufferView": 2,
      "byteOffset": 404136,
      "componentType": 5126,
      "count": 5254,
      "max": [
        4.0836629867553711,
        0.13945479691028595,
        1.9639370441436768
      ],
      "min": [
        -3.4812839031219482,
        -0.17656320333480835,
        -1.8688969612121582
      ],
      "type": "VEC3"
    },
    {
      "bufferView": 2,
      "byteOffset": 467184,
      "componentType": 5126,
      "count": 5254,
      "max": [
        0.99509477615356445,
        0.99873828887939453,
        1
      ],
      "min": [
        -0.99325501918792725,
        -0.99786478281021118,
        -0.99995380640029907
      ],
      "type": "VEC3"
    },
    {
      "bufferView": 1,
      "byteOffset": 134712,
      "componentType": 5126,
      "count": 5254,
      "max": [
        0.43542361259460449,
        0.59833931922912598
      ],
      "min": [
        0.17659029364585876,
        0.37687578797340393
      ],
      "type": "VEC2"
    },
    {
      "bufferView": 0,
      "byteOffset": 401112,
      "componentType": 5125,
      "count": 27936,
      "max": [
        5253
      ],
      "min": [
        0
      ],
      "type": "SCALAR"
    }
  ],
  "asset": {
    "extras": {
      "author": "3Dee (https://sketchfab.com/mellydeeis)",
      "license": "CC-BY-4.0 (http://creativecommons.org/licenses/by/4.0/)",
      "source": "https://sketchfab.com/3d-models/tuna-74ed3a04e0784716a8fa735048bc501b",
      "title": "Tuna"
    },
    "generator": "Sketchfab-9.52.0",
    "version": "2.0"
  },
  "bufferViews": [
    {
      "buffer": 0,
      "byteLength": 512856,
      "byteOffset": 0,
      "name": "floatBufferViews",
      "target": 34963
    },
    {
      "buffer": 0,
      "byteLength": 176744,
      "byteOffset": 512856,
      "byteStride": 8,
      "name": "floatBufferViews",
      "target": 34962
    },
    {
      "buffer": 0,
      "byteLength": 530232,
      "byteOffset": 689600,
      "byteStride": 12,
      "name": "floatBufferViews",
      "target": 34962
    }
  ],
  "buffers": [
    {
      "byteLength": 1219832,
      "uri": "scene.bin"
    }
  ],
  "images": [
    {
      "uri": "textures/Material.007_baseColor.png"
    },
    {
      "uri": "textures/Material.007_metallicRoughness.png"
    },
    {
      "uri": "textures/Material.004_metallicRoughness.png"
    },
    {
      "uri": "textures/Material.002_baseColor.png"
    },
    {
      "uri": "textures/Material.003_metallicRoughness.png"
    }
  ],
  "materials": [
    {
      "doubleSided": true,
      "name": "Material.007",
      "pbrMetallicRoughness": {
        "baseColorFactor": [
          1,
          1,
          1,
          1
        ],
        "baseColorTexture": {
          "index": 0,
          "texCoord": 0
        },
        "metallicFactor": 1,
        "metallicRoughnessTexture": {
          "index": 1,
          "texCoord": 0
        },
        "roughnessFactor": 0.15220700152207001
      }
    },
    {
      "doubleSided": true,
      "emissiveFactor": [
        0,
        0,
        0
      ],
      "name": "Material.006",
      "pbrMetallicRoughness": {
        "baseColorFactor": [
          1,
          1,
          1,
          1
        ],
        "baseColorTexture": {
          "index": 0,
          "texCoord": 0
        },
        "metallicFactor": 0.56621004566210043,
        "metallicRoughnessTexture": {
          "index": 1,
          "texCoord": 0
        },
        "roughnessFactor": 0.35312024353120242
      }
    },
    {
      "doubleSided": true,
      "emissiveFactor": [
        0,
        0,
        0
      ],
      "name": "Material.001",
      "pbrMetallicRoughness": {
        "baseColorFactor": [
          0.95585996955859964,
          0.95585996955859964,
          0.95585996955859964,
          1
        ],
        "baseColorTexture": {
          "index": 0,
          "texCoord": 0
        },
        "metallicFactor": 0.085235920852359204,
        "metallicRoughnessTexture": {
          "index": 1,
          "texCoord": 0
        },
        "roughnessFactor": 0.70015220700152203
      }
    },
    {
      "doubleSided": true,
      "emissiveFactor": [
        0,
        0,
        0
      ],
      "name": "Material.005",
      "pbrMetallicRoughness": {
        "baseColorFactor": [
          0.60882800608828003,
          0.60882800608828003,
          0.60882800608828003,
          1
        ],
        "baseColorTexture": {
          "index": 0,
          "texCoord": 0
        },
        "metallicFactor": 0.96194824961948244,
        "metallicRoughnessTexture": {
          "index": 1,
          "texCoord": 0
        },
        "roughnessFactor": 0.19482496194824961
      }
    },
    {
      "doubleSided": true,
      "emissiveFactor": [
        0,
        0,
        0
      ],
      "name": "Material.004",
      "occlusionTexture": {
        "index": 2,
        "strength": 0.57838660578386603,
        "texCoord": 0
      },
      "pbrMetallicRoughness": {
        "baseColorFactor": [
          0.80974124809741244,
          0.80974124809741244,
          0.80974124809741244,
          1
        ],
        "baseColorTexture": {
          "index": 0,
          "texCoord": 0
        },
        "metallicFactor": 0.69406392694063923,
        "metallicRoughnessTexture": {
          "index": 2,
          "texCoord": 0
        },
        "roughnessFactor": 0.59665144596651443
      }
    },
    {
      "alphaMode": "BLEND",
      "doubleSided": true,
      "emissiveFactor": [
        1,
        1,
        1
      ],
      "emissiveTexture": {
        "index": 0,
        "texCoord": 0
      },
      "name": "Material.002",
      "pbrMetallicRoughness": {
        "baseColorFactor": [
          1,
          1,
          1,
          0.018264840182648401
        ],
        "baseColorTexture": {
          "index": 3,
          "texCoord": 0
        },
        "metallicFactor": 1,
        "metallicRoughnessTexture": {
          "index": 1,
          "texCoord": 0
        },
        "roughnessFactor": 0.1095890410958904
      }
    },
    {
      "doubleSided": true,
      "emissiveFactor": [
        0.030363467463840003,
        0.0001072065592830193,
        0.0001072065592830193
      ],
      "name": "Material.003",
      "pbrMetallicRoughness": {
        "baseColorFactor": [
          0,
          0,
          0,
          1
        ],
        "baseColorTexture": {
          "index": 0,
          "texCoord": 0
        },
        "metallicFactor": 0.26179604261796041,
        "metallicRoughnessTexture": {
          "index": 4,
          "texCoord": 0
        },
        "roughnessFactor": 1
      }
    },
    {
      "doubleSided": true,
      "emissiveFactor": [
        0,
        0,
        0
      ],
      "name": "Material",
      "occlusionTexture": {
        "index": 2,
        "strength": 0.61491628614916283,
        "texCoord": 0
      },
      "pbrMetallicRoughness": {
        "baseColorFactor": [
          0.87671232876712324,
          0.87671232876712324,
          0.87671232876712324,
          1
        ],
        "baseColorTexture": {
          "index": 0,
          "texCoord": 0
        },
        "metallicFactor": 0,
        "metallicRoughnessTexture": {
          "index": 2,
          "texCoord": 0
        },
        "roughnessFactor": 0.84018264840182644
      }
    }
  ],
  "meshes": [
    {
      "name": "Material-material",
      "primitives": [
        {
          "attributes": {
            "NORMAL": 1,
            "POSITION": 0,
            "TEXCOORD_0": 2
          },
          "indices": 3,
          "material": 7,
          "mode": 4
        }
      ]
    },
    {
      "name": "Material_003-material",
      "primitives": [
        {
          "attributes": {
            "NORMAL": 5,
            "POSITION": 4,
            "TEXCOORD_0": 6
          },
          "indices": 7,
          "material": 6,
          "mode": 4
        }
      ]
    },
    {
      "name": "Material_002-material",
      "primitives": [
        {
          "attributes": {
            "NORMAL": 9,
            "POSITION": 8,
            "TEXCOORD_0": 10
          },
          "indices": 11,
          "material": 5,
          "mode": 4
        }
      ]
    },
    {
      "name": "Material_001-material",
      "primitives": [
        {
          "attributes": {
            "NORMAL": 13,
            "POSITION": 12,
            "TEXCOORD_0": 14
          },
          "indices": 15,
          "material": 2,
          "mode": 4
        }
      ]
    },
    {
      "name": "Material_005-material",
      "primitives": [
        {
          "attributes": {
            "NORMAL": 17,
            "POSITION": 16,
            "TEXCOORD_0": 18
          },
          "indices": 19,
          "material": 3,
          "mode": 4
        }
      ]
    },
    {
      "name": "Material_004-material",
      "primitives": [
        {
          "attributes": {
            "NORMAL": 21,
            "POSITION": 20,
            "TEXCOORD_0": 22
          },
          "indices": 23,
          "material": 4,
          "mode": 4
        }
      ]
    },
    {
      "name": "Material_006-material",
      "primitives": [
        {
          "attributes": {
            "NORMAL": 25,
            "POSITION": 24,
            "TEXCOORD_0": 26
          },
          "indices": 27,
          "material": 1,
          "mode": 4
        }
      ]
    },
    {
      "name": "Material_007-material",
      "primitives": [
        {
          "attributes": {
            "NORMAL": 29,
            "POSITION": 28,
            "TEXCOORD_0": 30
          },
          "indices": 31,
          "material": 0,
          "mode": 4
        }
      ]
    }
  ],
  "nodes": [
    {
      "children": [
        1
      ],
      "name": "RootNode (gltf orientation matrix)",
      "rotation": [
        -0.70710678118654746,
        -0,
        -0,
        0.70710678118654757
      ]
    },
    {
      "children": [
        2
      ],
      "matrix": [
        -1,
        -2.2204460492503131e-16,
        -2.832769343193999e-16,
        0,
        2.2204460492503131e-16,
        -1,
        5.0532153924443121e-16,
        0,
        -2.832769343193999e-16,
        5.0532153924443121e-16,
        1,
        0,
        -0.027486436069011688,
        -0.001213062321767211,
        -0.012793867848813534,
        1
      ],
      "name": "RootNode (model correction matrix)"
    },
    {
      "children": [
        3,
        5,
        7,
        9,
        13,
        15
      ],
      "name": "Collada visual scene group"
    },
    {
      "children": [
        4
      ],
      "matrix": [
        1,
        0,
        0,
        0,
        0,
        -4.64961e-08,
        1.063707,
        0,
        0,
        -1.0209760000000001,
        -4.4628299999999997e-08,
        0,
        0.41721950000000002,
        -4.5902799999999997e-05,
        -0.020858350000000001,
        1
      ],
      "name": "Plane"
    },
    {
      "mesh": 0,
      "name": "Material-material"
    },
    {
      "children": [
        6
      ],
      "matrix": [
        1,
        0,
        0,
        0,
        0,
        -4.64961e-08,
        1.063707,
        0,
        0,
        -1.0209760000000001,
        -4.4628299999999997e-08,
        0,
        1.9069119999999999,
        -8.9449099999999997e-05,
        -0.016342550000000001,
        1
      ],
      "name": "Plane.002"
    },
    {
      "mesh": 1,
      "name": "Material_003-material"
    },
    {
      "children": [
        8
      ],
      "matrix": [
        0.1210026,
        0,
        0,
        0,
        0,
        -5.2891899999999996e-09,
        -0.1210026,
        0,
        0,
        0.1210026,
        -5.2891899999999996e-09,
        0,
        1.7351890000000001,
        0.00024585500000000001,
        0.1087335,
        1
      ],
      "name": "Sphere"
    },
    {
      "mesh": 2,
      "name": "Material_002-material"
    },
    {
      "children": [
        10,
        11,
        12
      ],
      "matrix": [
        1,
        0,
        0,
        0,
        0,
        -4.64961e-08,
        1.063707,
        0,
        0,
        -1.0209760000000001,
        -4.4628299999999997e-08,
        0,
        0.70761309999999999,
        0.0034568580000000002,
        -0.068834469999999995,
        1
      ],
      "name": "Plane.003"
    },
    {
      "mesh": 3,
      "name": "Material_001-material"
    },
    {
      "mesh": 4,
      "name": "Material_005-material"
    },
    {
      "mesh": 5,
      "name": "Material_004-material"
    },
    {
      "children": [
        14
      ],
      "matrix": [
        0.19625329999999999,
        -3.2889700000000001e-09,
        0.024478969999999999,
        0,
        1.04981e-08,
        -0.19777410000000001,
        -1.10738e-07,
        0,
        0.024478969999999999,
        1.11186e-07,
        -0.19625329999999999,
        0,
        -0.4305406,
        0.00017558299999999999,
        -0.071096329999999999,
        1
      ],
      "name": "Circle.001"
    },
    {
      "mesh": 6,
      "name": "Material_006-material"
    },
    {
      "children": [
        16
      ],
      "matrix": [
        0.17057710000000001,
        0,
        0,
        0,
        0,
        0.17057710000000001,
        0,
        0,
        0,
        0,
        0.17057710000000001,
        0,
        -1.0252490000000001,
        0.0034007270000000001,
        -0.037801580000000001,
        1
      ],
      "name": "Circle.002"
    },
    {
      "mesh": 7,
      "name": "Material_007-material"
    }
  ],
  "samplers": [
    {
      "magFilter": 9729,
      "minFilter": 9987,
      "wrapS": 10497,
      "wrapT": 10497
    }
  ],
  "scene": 0,
  "scenes": [
    {
      "name": "OSG_Scene",
      "nodes": [
        0
      ]
    }
  ],
  "textures": [
    {
      "sampler": 0,
      "source": 0
    },
    {
      "sampler": 0,
      "source": 1
    },
    {
      "sampler": 0,
      "source": 2
    },
    {
      "sampler": 0,
      "source": 3
    },
    {
      "sampler": 0,
      "source": 4
    }
  ]
}

