{
    "asset": {
        "generator": "COLLADA2GLTF",
        "version": "2.0"
    },
    "scenes": [
        {
            "nodes": [
                0
            ]
        }
    ],
    "scene": 0,
    "nodes": [
        {
            "children": [
                1
            ],
            "matrix": [
                1.0,
                0.0,
                0.0,
                0.0,
                0.0,
                0.0,
                -1.0,
                0.0,
                0.0,
                1.0,
                0.0,
                0.0,
                0.0,
                0.0,
                0.0,
                1.0
            ],
            "name": "Z_UP"
        },
        {
            "mesh": 0,
            "children": [
                2
            ],
            "name": "SketchUp"
        },
        {
            "matrix": [
                -0.9947710037231444,
                0.10213050246238709,
                -1.7347230623865009e-18,
                0.0,
                -0.0150707196444273,
                -0.14679169654846192,
                0.9890525937080384,
                0.0,
                0.10101249814033508,
                0.9838809370994568,
                0.14756330847740174,
                0.0,
                0.6591787338256836,
                7.943979263305664,
                0.8092749714851379,
                1.0
            ],
            "camera": 0,
            "name": "skp_camera_Last_Saved_SketchUp_View"
        }
    ],
    "cameras": [
        {
            "perspective": {
                "yfov": 0.6108646988868713,
                "zfar": 25.399999618530278,
                "znear": 0.02539999969303608
            },
            "type": "perspective",
            "name": "skp_camera_Last_Saved_SketchUp_View"
        }
    ],
    "meshes": [
        {
            "primitives": [
                {
                    "attributes": {
                        "NORMAL": 1,
                        "POSITION": 2,
                        "TEXCOORD_0": 3
                    },
                    "indices": 0,
                    "mode": 4,
                    "material": 0
                },
                {
                    "attributes": {
                        "NORMAL": 5,
                        "POSITION": 6
                    },
                    "indices": 4,
                    "mode": 4,
                    "material": 1
                }
            ],
            "name": "ID3"
        }
    ],
    "accessors": [
        {
            "bufferView": 0,
            "byteOffset": 0,
            "componentType": 5123,
            "count": 432,
            "max": [
                311
            ],
            "min": [
                0
            ],
            "type": "SCALAR"
        },
        {
            "bufferView": 1,
            "byteOffset": 0,
            "componentType": 5126,
            "count": 312,
            "max": [
                0.9757460951805116,
                0.9996883869171144,
                0.987025499343872
            ],
            "min": [
                -0.97835510969162,
                -0.9996883869171144,
                -0.9869565963745116
            ],
            "type": "VEC3"
        },
        {
            "bufferView": 1,
            "byteOffset": 3744,
            "componentType": 5126,
            "count": 312,
            "max": [
                1.0696457624435425,
                1.019118309020996,
                0.6887580752372742
            ],
            "min": [
                -0.8888516426086426,
                -0.9992900490760804,
                -0.6926584839820862
            ],
            "type": "VEC3"
        },
        {
            "bufferView": 2,
            "byteOffset": 0,
            "componentType": 5126,
            "count": 312,
            "max": [
                1.0675790309906006,
                2.174229145050049
            ],
            "min": [
                -1.008211970329285,
                -0.0616140365600586
            ],
            "type": "VEC2"
        },
        {
            "bufferView": 0,
            "byteOffset": 864,
            "componentType": 5123,
            "count": 432,
            "max": [
                311
            ],
            "min": [
                0
            ],
            "type": "SCALAR"
        },
        {
            "bufferView": 1,
            "byteOffset": 7488,
            "componentType": 5126,
            "count": 312,
            "max": [
                0.97835510969162,
                0.9996883869171144,
                0.9869565963745116
            ],
            "min": [
                -0.9757460951805116,
                -0.9996883869171144,
                -0.987025499343872
            ],
            "type": "VEC3"
        },
        {
            "bufferView": 1,
            "byteOffset": 11232,
            "componentType": 5126,
            "count": 312,
            "max": [
                1.0696457624435425,
                1.019118309020996,
                0.6887580752372742
            ],
            "min": [
                -0.8888516426086426,
                -0.9992900490760804,
                -0.6926584839820862
            ],
            "type": "VEC3"
        }
    ],
    "materials": [
        {
            "pbrMetallicRoughness": {
                "baseColorTexture": {
                    "index": 0
                },
                "metallicFactor": 0.0
            },
            "name": "ID5"
        },
        {
            "pbrMetallicRoughness": {
                "baseColorFactor": [
                    0.5529412031173706,
                    0.686274528503418,
                    0.7568626999855042,
                    1.0
                ],
                "metallicFactor": 0.0
            },
            "name": "ID13"
        }
    ],
    "textures": [
        {
            "sampler": 0,
            "source": 0
        }
    ],
    "images": [
        {
            "uri": "Blacktop_Old_02.jpg"
        }
    ],
    "samplers": [
        {
            "magFilter": 9729,
            "minFilter": 9986,
            "wrapS": 10497,
            "wrapT": 10497
        }
    ],
    "bufferViews": [
        {
            "buffer": 0,
            "byteOffset": 17472,
            "byteLength": 1728,
            "target": 34963
        },
        {
            "buffer": 0,
            "byteOffset": 0,
            "byteLength": 14976,
            "byteStride": 12,
            "target": 34962
        },
        {
            "buffer": 0,
            "byteOffset": 14976,
            "byteLength": 2496,
            "byteStride": 8,
            "target": 34962
        }
    ],
    "buffers": [
        {
            "byteLength": 19200,
            "uri": "4a1cd142-bee1-4bbb-bd26-f8d8e16a679f0.bin"
        }
    ]
}
